<?xml version="1.0" standalone="no"?>
<!DOCTYPE svg PUBLIC "-//W3C//DTD SVG 20010904//EN"
 "http://www.w3.org/TR/2001/REC-SVG-20010904/DTD/svg10.dtd">
<svg version="1.0" xmlns="http://www.w3.org/2000/svg"
 width="512.000000pt" height="512.000000pt" viewBox="0 0 512.000000 512.000000"
 preserveAspectRatio="xMidYMid meet">

<g transform="translate(0.000000,512.000000) scale(0.100000,-0.100000)"
fill="#000000" stroke="none">
<path d="M0 2560 l0 -2560 2560 0 2560 0 0 2560 0 2560 -2560 0 -2560 0 0
-2560z m4586 2098 c-214 -590 -604 -1236 -1002 -1657 -35 -38 -64 -71 -64 -74
0 -18 303 134 477 239 272 163 530 358 806 607 48 44 90 78 92 75 6 -5 -79
-259 -150 -448 -192 -516 -426 -940 -721 -1310 -122 -152 -429 -465 -579 -589
-590 -489 -1313 -874 -2315 -1233 -192 -69 -601 -200 -607 -195 -2 3 52 53
119 113 563 500 1137 1072 1378 1374 99 124 140 182 180 254 l33 59 -119 -80
c-430 -288 -913 -541 -1404 -736 -166 -65 -453 -167 -472 -167 -6 0 72 84 173
188 492 501 804 952 935 1350 l24 74 -122 131 c-194 210 -337 399 -465 617
-28 47 -93 150 -145 230 -151 232 -275 464 -363 679 -68 168 -68 166 33 70
289 -275 694 -495 1092 -593 693 -169 1435 -34 2192 400 309 177 637 416 938
683 52 46 96 79 97 74 2 -6 -16 -67 -41 -135z m-1536 -169 c162 -73 212 -285
101 -420 -96 -116 -283 -125 -389 -19 -132 132 -97 351 70 434 66 33 152 35
218 5z"/>
</g>
</svg>
